<svg xmlns="http://www.w3.org/2000/svg" width="256" height="256"><path fill="#1976D2" fill-opacity=".016" fill-rule="evenodd" d="M0 128.004v128.004l128.25-.254 128.25-.254.254-127.75L257.008 0H0v128.004m.485.496c0 70.4.119 99.053.265 63.672.146-35.38.146-92.98 0-128C.604 29.153.485 58.1.485 128.5"/><path fill="#1976D2" fill-opacity=".418" fill-rule="evenodd" d="M0 128.004v128.004l128.25-.254 128.25-.254.254-127.75L257.008 0H0v128.004m.485.496c0 70.4.119 99.053.265 63.672.146-35.38.146-92.98 0-128C.604 29.153.485 58.1.485 128.5M72.5 51.033c-11.554 3.698-21.382 14.264-25.231 27.125-1.308 4.371-1.673 12.328-2.008 43.767-.458 42.962.164 51.113 4.635 60.667 4.095 8.75 9.059 13.782 17.918 18.163l7.572 3.745 17.2.331c18.364.353 20.672-.1 26.182-5.139 5.106-4.67 5.232-6.625 5.232-81.374V49l-22.75.056c-19.583.049-23.585.324-28.75 1.977m67.723.042c-2.879 1.454-5.167 3.675-7 6.793L130.5 62.5l.21 31c.116 17.05.228 49.141.25 71.314l.04 40.315 24.307-.315 24.306-.314 7.595-3.756c10.878-5.38 17.179-13.287 20.303-25.48 1.355-5.29 1.542-12.688 1.287-51.03l-.298-44.843-3.759-7.603c-4.592-9.288-12.117-16.604-20.494-19.925-5.022-1.99-7.892-2.32-22.747-2.613-15.807-.312-17.3-.184-21.277 1.825M83.685 74.993c-4.484.838-7.923 3.22-12.098 8.378-2.579 3.187-3.075 4.734-3.347 10.435-.264 5.544.077 7.376 1.986 10.664 5.646 9.727 19.098 13.196 27.908 7.196 5.609-3.82 9.104-9.089 9.625-14.51 1.338-13.925-10.389-24.721-24.074-22.163m74.815 1.521c-7.927 4.26-12.105 11.836-11.277 20.45 1.174 12.228 13.397 20.12 25.564 16.507 5.198-1.544 11.385-7.088 13.153-11.786 2.864-7.609-.248-17.53-7.246-23.098-3.227-2.567-4.826-3.078-10.5-3.356-4.766-.234-7.558.136-9.694 1.283m-79 65.059c-13.159 6.843-15.511 24.508-4.498 33.775 12.532 10.545 32.664.705 32.426-15.848-.159-11.039-8.574-19.506-19.374-19.494-3.072.004-6.895.704-8.554 1.567m79 .089C151.077 145.575 147 152.077 147 160c0 16.283 18.659 25.55 31.994 15.889 11.94-8.649 10.2-27.113-3.204-33.986-4.556-2.337-13.09-2.456-17.29-.241"/><path fill="#1976D2" fill-opacity=".144" fill-rule="evenodd" d="M0 127.947v128.061l128.25-.254 128.25-.254.009-128c.005-70.4-.11-98.862-.257-63.25l-.267 64.75-12.242.006c-13.494.006-17.027.689-26.993 5.221l-6.75 3.069-.008 13.102c-.013 22.484-2.777 32.923-11.141 42.075-5.721 6.259-14.349 10.978-22.944 12.548-3.076.562-14.551.9-25.5.751L130.5 205.5l-.261-40.381-.262-40.381-2.988-3.404L124 117.93l-.006 35.785c-.003 21.106-.421 37.283-1.019 39.437-1.26 4.533-7.506 10.346-12.654 11.776-4.851 1.347-24.386 1.387-31.361.064-16.726-3.172-29.774-16.043-32.937-32.492-.795-4.131-1.055-19.396-.837-49 .313-42.36.353-43.086 2.651-48.784 1.283-3.182 3.893-7.829 5.8-10.327l3.467-4.542-11.802-12.663a3958.821 3958.821 0 0 0-21.315-22.673C18.755 19.005 12.013 11.8 9.005 8.5 5.997 5.2 2.74 1.912 1.768 1.193.08-.054 0 5.665 0 127.947m.485.553c0 70.4.119 99.053.265 63.672.146-35.38.146-92.98 0-128C.604 29.153.485 58.1.485 128.5m80.726-52.371c-6.503 1.875-13.227 11.288-13.205 18.487.011 3.993 2.227 9.58 5.095 12.846 8.622 9.82 26.08 7.945 31.879-3.423 2.113-4.141 2.68-7.565 1.092-6.583-.51.315-1.187-.221-1.504-1.191-.316-.971-4.769-5.905-9.896-10.966-8.721-8.609-9.155-9.226-6.746-9.6 2.309-.358 2.265-.405-.426-.459-1.65-.033-4.48.367-6.289.889m.58 64.859C74.889 143.069 68 152.34 68 159.547c0 11.772 9.086 20.121 20.962 19.262 10.329-.747 17.097-7.474 17.839-17.731 1.005-13.9-11.696-24.103-25.01-20.09m76.523 1.446c-11.948 5.563-14.835 20.208-5.974 30.301 1.721 1.959 4.584 4.171 6.362 4.914 4.15 1.734 12.446 1.734 16.596 0 5.937-2.481 11.691-11.166 11.691-17.649 0-6.769-5.704-15.056-12.48-18.135-5.433-2.468-10.018-2.307-16.195.569"/><path fill="#1976D2" fill-opacity=".2" fill-rule="evenodd" d="M70.954 85.086c-.614 1.147-.928 2.274-.697 2.504.23.23.932-.708 1.559-2.086 1.378-3.024.707-3.35-.862-.418m-1.875 5.497c.048 1.165.285 1.402.604.605.289-.722.253-1.585-.079-1.917-.332-.332-.568.258-.525 1.312m0 9c.048 1.165.285 1.402.604.605.289-.722.253-1.585-.079-1.917-.332-.332-.568.258-.525 1.312m.921 3.358c0 .518.445 1.216.989 1.552.566.35.734-.051.393-.941-.665-1.732-1.382-2.049-1.382-.611M73.5 108c.995 1.1 2.035 2 2.31 2 .275 0-.315-.9-1.31-2-.995-1.1-2.035-2-2.31-2-.275 0 .315.9 1.31 2m4.941 3.445c1.068.855 2.643 1.519 3.5 1.476 1.347-.068 1.355-.155.059-.635-.825-.306-2.4-.97-3.5-1.476-1.968-.906-1.969-.895-.059.635m14.372 1.238c.721.289 1.584.253 1.916-.079.332-.332-.258-.568-1.312-.525-1.165.048-1.402.285-.604.604m-6.563 1.006c.963.252 2.537.252 3.5 0 .963-.251.175-.457-1.75-.457s-2.713.206-1.75.457m37.535 42.482-.285 37.478-2.661 4.019c-4.556 6.882-7.811 7.832-26.839 7.832-13.308 0-17.497-.348-21.656-1.799-11.804-4.119-21.584-14.372-25.398-26.628-1.594-5.119-1.946-9.212-1.946-22.599v-16.349l-6.25-3.041C29.584 130.625 21.985 129 10.29 129H0v127.008l128.25-.254 128.25-.254.258-63.5.259-63.5-13.259.644c-14.038.682-20.938 2.254-29.008 6.61l-4.75 2.564v14.204c0 7.813-.459 16.627-1.021 19.587-3.196 16.857-16.029 29.935-32.33 32.948-2.932.542-14.514.863-25.74.714L130.5 205.5l-.261-40.574-.261-40.573-2.954-2.83-2.954-2.83-.285 37.478M.471 192.5c0 35.2.126 49.455.279 31.678.153-17.778.153-46.578-.001-64C.596 142.755.471 157.3.471 192.5m81.166-51.035c-13.133 4.682-17.461 20.832-8.361 31.197 9.079 10.34 25.293 7.858 31.821-4.872 5.141-10.024-.937-23.707-11.878-26.746-4.806-1.335-6.868-1.26-11.582.421m80.863-.558c-6.679 1.66-12.651 7.374-14.44 13.816-1.304 4.697-1.306 5.851-.016 10.496 3.966 14.279 23.452 18.551 33.842 7.419 3.375-3.617 5.174-11.222 3.978-16.826-1.051-4.929-5.59-11.11-9.704-13.215-3.549-1.816-9.961-2.609-13.66-1.69"/></svg>